<svg width="28" height="25" viewBox="0 0 28 25" fill="none" xmlns="http://www.w3.org/2000/svg">
    <rect width="27.3438" height="25" fill="white" />
    <path fill-rule="evenodd" clip-rule="evenodd"
        d="M10.905 0.594693C11.8112 -0.198231 13.1888 -0.198231 14.095 0.594693L24.214 9.44927C24.7144 9.88712 25 10.5101 25 11.1637V22.6909C25 23.9662 23.934 25 22.619 25H18.1548V22.6909H22.619V11.1637L12.5 2.30914L2.38095 11.1637V22.6909H6.84524V25H2.38095C1.06599 25 0 23.9662 0 22.6909V11.1637C0 10.5101 0.285607 9.88712 0.785977 9.44927L10.905 0.594693Z"
        fill="#041638" />
    <path fill-rule="evenodd" clip-rule="evenodd"
        d="M7.90043 18.0726C7.90043 16.7973 8.96642 15.7635 10.2814 15.7635H14.7186C16.0336 15.7635 17.0996 16.7973 17.0996 18.0726V22.6909H19.0476C19.7051 22.6909 20.2381 23.2078 20.2381 23.8454C20.2381 24.4831 19.7051 25 19.0476 25H17.0996C15.7846 25 14.7186 23.9662 14.7186 22.6909L14.7186 18.0726H10.2814V22.6909C10.2814 23.9662 9.21539 25 7.90043 25H5.95238C5.2949 25 4.7619 24.4831 4.7619 23.8454C4.7619 23.2078 5.2949 22.6909 5.95238 22.6909H7.90043L7.90043 18.0726Z"
        fill="#041638" />
</svg>
    