<svg width="28" height="25" viewBox="0 0 28 25" fill="none" xmlns="http://www.w3.org/2000/svg">
    <g clip-path="url(#clip0_22_66)">
        <rect width="27.3438" height="25" fill="white" />
        <path
            d="M23.7575 15.9498C24.2315 15.1311 24.5788 14.2576 24.784 13.3493C25.3029 11.0525 24.8786 8.68779 23.6009 6.63017C23.4064 6.31694 23.1921 6.01082 22.9583 5.71315C22.8655 5.59492 22.77 5.47851 22.6718 5.36395C20.8997 3.29542 18.277 1.83383 15.2936 1.26357C15.2343 1.25224 15.175 1.24128 15.1156 1.23068C12.1515 0.701875 9.06 1.08951 6.41634 2.31743C6.2997 2.37161 6.18393 2.42742 6.06909 2.48486C4.06009 3.48968 2.4461 4.93642 1.38858 6.64711C0.987979 7.29514 0.667231 7.98105 0.435116 8.69515C-0.383465 11.2135 -0.0381381 13.8931 1.39578 16.2055C1.44181 16.2798 1.48897 16.3536 1.53724 16.4271C1.61486 16.5452 1.69507 16.6618 1.77781 16.7769C3.3494 18.9634 5.83192 20.5983 8.76012 21.3637C8.83732 21.3839 8.91467 21.4035 8.99217 21.4223C10.5728 21.8076 12.2152 21.9255 13.8262 21.7823L13.145 19.9889C11.897 20.0542 10.6339 19.9301 9.4188 19.6125C9.34141 19.5923 9.26439 19.5713 9.18776 19.5496C6.75012 18.8594 4.70773 17.4318 3.46803 15.5453C3.38963 15.426 3.31482 15.3054 3.2436 15.1837C3.21624 15.1369 3.18941 15.09 3.16311 15.0429C2.14149 13.213 1.92303 11.1348 2.56002 9.17515C2.71358 8.70272 2.91423 8.24527 3.15821 7.80692C3.96413 6.35904 5.2429 5.11962 6.8596 4.23744C6.97202 4.1761 7.08607 4.11648 7.20172 4.05864C9.48387 2.9172 12.2075 2.5566 14.8016 3.05244C14.8609 3.06379 14.9201 3.07557 14.9791 3.08777C17.4988 3.6087 19.6921 4.90454 21.1164 6.71835C21.2103 6.83789 21.3003 6.95908 21.3865 7.08179C21.5498 7.31424 21.6994 7.55216 21.8349 7.7947C22.7391 9.41247 23.0213 11.2356 22.6205 13.0096C22.4696 13.6775 22.2513 14.284 21.9589 14.8409C21.312 16.0726 20.302 17.0621 18.8542 17.9394L18.8221 17.9588L18.75 18.0019L19.7239 19.8566L20.195 20.9729L18.4502 19.9707L17.9321 20.5163L17.9264 20.5067L18.4407 19.9652L17.1657 19.2329L17.0899 19.1059C17.0513 19.1219 17.0127 19.1377 16.974 19.1533C15.7675 19.6384 14.4702 19.9184 13.156 19.9883L13.8371 21.7813C14.5714 21.7154 15.2992 21.5953 16.0117 21.4214C16.1531 21.3869 16.2939 21.3503 16.434 21.3116L16.9051 21.5822L17.4778 20.9792C17.4853 20.9765 17.4928 20.9738 17.5003 20.971L16.9147 21.5877L24.5966 26L21.4966 18.6551C22.419 17.8579 23.1817 16.9443 23.7575 15.9498Z"
            fill="#041638" />
    </g>
    <defs>
        <clipPath id="clip0_22_66">
            <rect width="27.3438" height="25" fill="white" />
        </clipPath>
    </defs>
</svg>
    