<svg width="28" height="25" viewBox="0 0 28 25" fill="none" xmlns="http://www.w3.org/2000/svg">
    <g clip-path="url(#clip0_22_62)">
        <rect width="27.3438" height="25" fill="white" />
        <path
            d="M15.9976 15.4684L16.5548 13.4132C17.2628 13.5618 17.8536 13.5368 18.3272 13.3381C18.8094 13.1417 19.1218 12.7803 19.2644 12.254L19.312 12.0785C19.4275 11.6524 19.3828 11.2786 19.178 10.9569C18.9755 10.6269 18.644 10.4019 18.1837 10.2821C17.6894 10.1533 17.2556 10.188 16.8826 10.386C16.518 10.5862 16.2269 10.886 16.0091 11.2855L15.1581 10.6882C15.3072 10.4408 15.4871 10.2149 15.6977 10.0103C15.9191 9.79965 16.1655 9.63127 16.4369 9.50518C16.7191 9.37296 17.0284 9.2925 17.3647 9.2638C17.701 9.2351 18.0695 9.27291 18.4701 9.37724C19.2628 9.58367 19.8316 9.95986 20.1763 10.5058C20.5211 11.0517 20.595 11.6881 20.398 12.415C20.2893 12.816 20.1217 13.148 19.8953 13.4111C19.6796 13.6679 19.4327 13.872 19.1545 14.0231C18.8762 14.1743 18.5795 14.2759 18.2642 14.3279C17.949 14.38 17.6439 14.3945 17.349 14.3714L16.9821 15.7248L15.9976 15.4684Z"
            fill="#041638" />
        <path
            d="M15.7489 18.3553C15.4762 18.2842 15.294 18.1652 15.2024 17.9983C15.1193 17.8335 15.1072 17.6425 15.166 17.4253L15.2102 17.2624C15.2691 17.0452 15.3763 16.8853 15.5319 16.7827C15.696 16.6823 15.9144 16.6676 16.1872 16.7387C16.4599 16.8097 16.6378 16.9276 16.7209 17.0923C16.8126 17.2593 16.8289 17.4514 16.7701 17.6686L16.7259 17.8315C16.667 18.0487 16.5555 18.2075 16.3914 18.3079C16.2359 18.4105 16.0217 18.4263 15.7489 18.3553Z"
            fill="#041638" />
        <path fill-rule="evenodd" clip-rule="evenodd"
            d="M13.3328 2.04566C13.119 1.98578 12.9021 1.98658 12.7014 2.03764C12.0626 1.8761 11.4093 2.24945 11.239 2.87535L6.42836 20.557C6.2579 21.1836 6.63573 21.8274 7.27398 21.998L20.5033 25.5343C20.8122 25.6169 21.1419 25.5753 21.4194 25.4189C21.6969 25.2624 21.8993 25.004 21.9818 24.7008L26.7924 7.01914C26.9615 6.39796 26.5915 5.75861 25.9608 5.58199L13.3328 2.04566ZM9.06061 20.0319L13.2903 4.48565L24.1639 7.53068L19.9693 22.9479L9.06061 20.0319Z"
            fill="#041638" />
        <path
            d="M1.02043 6.27467C0.845731 4.95997 1.81106 3.76265 3.15646 3.62531L7.46585 3.18542C8.12649 3.11799 8.71782 3.58824 8.78662 4.23575C8.85542 4.88327 8.37564 5.46286 7.715 5.5303L3.40562 5.97018L5.88683 24.6422L10.9553 23.9951C11.614 23.9111 12.2175 24.3662 12.3033 25.0118C12.3891 25.6574 11.9247 26.2489 11.266 26.333L6.19749 26.98C4.88019 27.1482 3.67322 26.2378 3.50165 24.9467L1.02043 6.27467Z"
            fill="#041638" />
    </g>
    <defs>
        <clipPath id="clip0_22_62">
            <rect width="27.3438" height="25" fill="white" />
        </clipPath>
    </defs>
</svg>
    