<svg width="28" height="25" viewBox="0 0 28 25" fill="none" xmlns="http://www.w3.org/2000/svg">
    <rect width="27.3438" height="25" fill="white" />
    <path
        d="M17.3583 5.9687L19.5996 5.97955C19.596 6.79769 19.4337 7.59771 19.1308 8.33333L19.1205 8.3582C18.8399 9.03131 18.4414 9.64984 17.9391 10.1781C16.8826 11.2891 15.4533 11.9101 13.9652 11.9047C12.477 11.8993 11.0518 11.268 10.0025 10.1493C8.95323 9.03069 8.36576 7.51629 8.36916 5.9388C8.37255 4.36131 8.96653 2.84976 10.0206 1.73622C11.0747 0.62267 12.5026 -0.0017959 13.9908 3.87958e-06C15.4789 0.00180365 16.9055 0.629722 17.9572 1.74581C18.4573 2.27652 18.8531 2.89697 19.1308 3.57143L19.141 3.59635C19.4407 4.33343 19.5996 5.13423 19.5996 5.95238H17.3583C17.3583 5.0774 17.0558 4.23544 16.5122 3.58363C16.4669 3.52936 16.42 3.47641 16.3714 3.42487C15.7396 2.75427 14.8824 2.37698 13.9882 2.3759C13.0941 2.37482 12.2361 2.75003 11.6027 3.4191C10.9694 4.08817 10.6125 4.99639 10.6105 5.94422C10.6084 6.89205 10.9614 7.80198 11.5919 8.47411C12.2223 9.14624 13.0787 9.5256 13.9728 9.52884C14.867 9.53209 15.7258 9.15895 16.3605 8.49141C16.4093 8.44011 16.4565 8.38738 16.502 8.33333C17.0484 7.68416 17.3545 6.84368 17.3583 5.9687Z"
        fill="#041638" />
    <path
        d="M7.24609 23.8095C7.24609 22.2995 7.99596 20.1702 9.30869 18.3989C10.6226 16.626 12.2975 15.4762 13.9844 15.4762C15.6713 15.4762 17.3462 16.626 18.6601 18.3989C19.9728 20.1702 20.7227 22.2995 20.7227 23.8095C20.7227 24.467 21.2255 25 21.8457 25C22.4659 25 22.9688 24.467 22.9688 23.8095C22.9688 21.6284 21.9588 18.9958 20.4263 16.928C18.8949 14.8617 16.6391 13.0952 13.9844 13.0952C11.3296 13.0952 9.07381 14.8617 7.54246 16.928C6.00995 18.9958 5 21.6284 5 23.8095C5 24.467 5.50281 25 6.12305 25C6.74329 25 7.24609 24.467 7.24609 23.8095Z"
        fill="#041638" />
</svg>
    