<svg width="28" height="25" viewBox="0 0 28 25" fill="none" xmlns="http://www.w3.org/2000/svg">
    <g clip-path="url(#clip0_22_64)">
        <rect width="27.3438" height="25" fill="white" />
        <path
            d="M16.4564 12.7827L18.0689 12.7969C18.0643 13.3273 17.9804 13.8488 17.8242 14.3457L17.8099 14.3904C17.5487 15.1959 17.0966 15.935 16.4821 16.5401C15.4783 17.5285 14.1235 18.0783 12.7148 18.069C11.3062 18.0597 9.95873 17.492 8.96813 16.4904C7.97754 15.4889 7.4247 14.1352 7.4309 12.7266C7.43711 11.3179 8.00186 9.96918 9.00125 8.97638C10.0006 7.98358 11.353 7.42776 12.7617 7.43086C14.1704 7.43397 15.5203 7.99574 16.5153 8.99294C17.1245 9.60339 17.5701 10.3465 17.8242 11.1543L17.838 11.199C17.9899 11.6973 18.0691 12.2196 18.0691 12.75H16.4564C16.4564 12.2036 16.3357 11.6697 16.1092 11.1838C15.9287 10.7967 15.6811 10.4402 15.3737 10.1321C14.6804 9.43725 13.7397 9.04581 12.7582 9.04364C11.7766 9.04148 10.8342 9.42878 10.1379 10.1206C9.44151 10.8123 9.048 11.7521 9.04367 12.7337C9.03935 13.7152 9.42457 14.6584 10.1148 15.3563C10.8051 16.0542 11.7439 16.4498 12.7255 16.4563C13.7071 16.4628 14.6511 16.0796 15.3505 15.3909C15.6606 15.0856 15.9114 14.7312 16.0953 14.3457C16.3261 13.8619 16.4515 13.329 16.4564 12.7827Z"
            fill="#041638" />
        <path fill-rule="evenodd" clip-rule="evenodd"
            d="M11.7324 0.25C11.3788 0.25 11.0789 0.480065 10.9742 0.798686C10.7318 0.878707 10.5319 1.07346 10.4565 1.33747L9.5545 4.49433L8.76582 4.75723L5.51403 2.89907C5.20164 2.72055 4.80841 2.77321 4.554 3.02763L3.02763 4.554C2.77321 4.80841 2.72055 5.20164 2.89907 5.51403L4.72236 8.7048L4.05272 10.0441L0.82868 10.9653C0.486152 11.0631 0.25 11.3762 0.25 11.7324V13.7676C0.25 14.1238 0.486152 14.4369 0.82868 14.5347L4.05272 15.4559L4.72236 16.7952L2.89907 19.986C2.72055 20.2984 2.77321 20.6916 3.02763 20.946L4.554 22.4724C4.82979 22.7482 5.26455 22.7841 5.58193 22.5574L8.75254 20.2927L10.0298 20.9313L10.9584 24.6456C11.0472 25.0008 11.3663 25.25 11.7324 25.25H13.7676C14.1337 25.25 14.4528 25.0008 14.5416 24.6456L15.4702 20.9313L16.7475 20.2927L19.9181 22.5574C20.2354 22.7841 20.6702 22.7482 20.946 22.4724L22.4724 20.946C22.7482 20.6702 22.7841 20.2354 22.5574 19.9181L20.2927 16.7475L20.9313 15.4702L24.6456 14.5416C25.0008 14.4528 25.25 14.1337 25.25 13.7676V11.7324C25.25 11.3663 25.0008 11.0472 24.6456 10.9584L21.0398 10.0569L20.7248 8.7972L22.6009 5.51403C22.7794 5.20164 22.7268 4.80841 22.4724 4.554L20.946 3.02763C20.6916 2.77321 20.2984 2.72055 19.986 2.89907L16.7952 4.72236L15.4559 4.05272L14.5347 0.82868C14.4369 0.486152 14.1238 0.25 13.7676 0.25H11.7324ZM10.9732 5.33737L11.9708 1.84574H13.1657L14.018 4.82858C14.0794 5.04363 14.2283 5.22301 14.4283 5.32303L16.4635 6.3406C16.7021 6.45991 16.9845 6.45207 17.2162 6.31971L20.2486 4.58691L20.9131 5.25144L19.1803 8.28384C19.0782 8.46247 19.0491 8.67362 19.099 8.87321L19.6078 10.9084C19.6792 11.1942 19.9024 11.4174 20.1883 11.4889L23.6543 12.3554V13.1446L20.1883 14.0111C19.9623 14.0676 19.7723 14.22 19.6682 14.4283L18.6506 16.4635C18.5184 16.7278 18.5432 17.0436 18.715 17.2841L20.8661 20.2956L20.2956 20.8661L17.2841 18.715C17.0436 18.5432 16.7278 18.5184 16.4635 18.6506L14.4283 19.6682C14.22 19.7723 14.0676 19.9623 14.0111 20.1883L13.1446 23.6543H12.3554L11.4889 20.1883C11.4324 19.9623 11.28 19.7723 11.0717 19.6682L9.03651 18.6506C8.77218 18.5184 8.45643 18.5432 8.21594 18.715L5.20443 20.8661L4.58691 20.2486L6.31971 17.2162C6.45207 16.9845 6.45991 16.7021 6.3406 16.4635L5.32303 14.4283C5.22301 14.2283 5.04363 14.0794 4.82858 14.018L1.84574 13.1657V12.3343L4.82858 11.482C5.04363 11.4206 5.22301 11.2717 5.32303 11.0717L6.3406 9.03651C6.45991 8.79791 6.45207 8.51546 6.31971 8.28384L4.58691 5.25144L5.25144 4.58691L8.28384 6.31971C8.48093 6.43233 8.71666 6.45568 8.932 6.38389L10.4584 5.87511C10.7082 5.79182 10.9009 5.5906 10.9732 5.33737Z"
            fill="#041638" />
    </g>
    <defs>
        <clipPath id="clip0_22_64">
            <rect width="27.3438" height="25" fill="white" />
        </clipPath>
    </defs>
</svg>
    